<svg id="Calque_1" data-name="Calque 1" xmlns="http://www.w3.org/2000/svg" viewBox="0 0 615.96 384.02"><defs><style>.cls-1{fill:#f66b13;}</style></defs><path class="cls-1" d="M148.6,304c8.2,68.5,67.4,115.5,146,111.3,51.2,43.3,136.8,45.8,186.4-5.6,69.2,1.1,118.5-44.6,131.5-99.5,14.8-62.5-18.2-132.5-92.1-155.1C487.4,67,389,53.6,333.9,70.1c-57.3,17.3-84.3,53.2-99.3,109.7-7.8,2.7-26.5,8.9-45,24.1,11.7,0,15.2,8.9,15.2,19.5v20.4a19.53,19.53,0,0,1-19.5,19.5H165.1c-10.7,0-19.5-6-19.5-16.7V240H98.8C95,240,88,244.3,88,251.9v40.4a11.87,11.87,0,0,0,11.7,11.8h48.9ZM376,312c-10.7,46.3,21.7,72.4,55.3,86.8C324.1,432.6,259.7,348,296,288c-33.2,21.6-33.7,71.2-29.2,92.9-17.9-12.4-53.8-32.4-57.4-79.8-3-39.9,21.5-75.7,57-93.9C297,191.4,369.9,198.7,400,248c-14.1-48-53.8-70.1-101.8-74.8,30.9-30.7,64.4-50.3,114.2-43.7,69.8,9.3,133.2,82.8,67.7,150.5,35-16.3,48.7-54.4,47.5-76.9l10.5,19.6a102,102,0,0,1-70.3,148.5c-32.1,6.3-83.1-5.1-91.8-59.2ZM128,208H88.2A16.26,16.26,0,0,1,72,191.8V152.2A16.26,16.26,0,0,1,88.2,136H128a16.26,16.26,0,0,1,16.2,16.2v39.6A16.26,16.26,0,0,1,128,208ZM10.1,168A10.07,10.07,0,0,1,0,157.9V130.1A10.07,10.07,0,0,1,10.1,120H37.8a10.14,10.14,0,0,1,10.1,10.1v27.8A10.07,10.07,0,0,1,37.8,168ZM168,142.7V121.3a9.35,9.35,0,0,1,9.3-9.3h21.4a9.35,9.35,0,0,1,9.3,9.3v21.4a9.35,9.35,0,0,1-9.3,9.3H177.3A9.35,9.35,0,0,1,168,142.7ZM56,235.5v25A11.48,11.48,0,0,1,44.6,272H19.4A11.48,11.48,0,0,1,8,260.5v-25A11.48,11.48,0,0,1,19.4,224H44.5A11.5,11.5,0,0,1,56,235.5Z" transform="translate(0 -64)"/></svg>