<svg id="Calque_1" data-name="Calque 1" xmlns="http://www.w3.org/2000/svg" viewBox="0 0 576 384"><defs><style>.cls-1{fill:#05194b;}</style></defs><path class="cls-1" d="M288,144a111.1,111.1,0,0,0-31.24,5A55.57,55.57,0,0,1,181,224.76,111.72,111.72,0,1,0,288,144Zm284.52,97.4C518.29,135.59,410.93,64,288,64S57.68,135.64,3.48,241.41a32.35,32.35,0,0,0,0,29.19C57.71,376.41,165.07,448,288,448s230.32-71.64,284.52-177.41A32.35,32.35,0,0,0,572.52,241.4ZM288,400c-98.65,0-189.09-55-237.93-144C98.91,167,189.34,112,288,112s189.09,55,237.93,144C477.1,345,386.66,400,288,400Z" transform="translate(0 -64)"/></svg>