<svg id="Calque_1" data-name="Calque 1" xmlns="http://www.w3.org/2000/svg" viewBox="0 0 576 512"><defs><style>.cls-1{fill:#ff6a14;}</style></defs><path class="cls-1" d="M528,64H384v96H192V64H48A48,48,0,0,0,0,112V464a48,48,0,0,0,48,48H528a48,48,0,0,0,48-48V112A48,48,0,0,0,528,64ZM288,224a64,64,0,1,1-64,64A64.06,64.06,0,0,1,288,224Zm93.3,224H194.7c-10.4,0-18.8-10-15.6-19.8A64,64,0,0,1,240,384h8.2a103,103,0,0,0,79.6,0H336a64.09,64.09,0,0,1,60.9,44.2C400.1,438,391.7,448,381.3,448ZM352,32A32,32,0,0,0,320,0H256a32,32,0,0,0-32,32v96H352Z" transform="translate(0 0)"/></svg>