<svg id="Calque_1" data-name="Calque 1" xmlns="http://www.w3.org/2000/svg" viewBox="0 0 640 320"><defs><style>.cls-1{fill:#ff6a14;}</style></defs><path class="cls-1" d="M152.1,236.2c-3.5-12.1-7.8-33.2-7.8-33.2h-.5s-4.3,21.1-7.8,33.2l-11.1,37.5H163ZM616,96H336V416H616a23.94,23.94,0,0,0,24-24V120A23.94,23.94,0,0,0,616,96ZM592,216a12,12,0,0,1-12,12H568.6c-6.9,23.6-21.7,47.4-42.7,69.9a310,310,0,0,0,26.1,18,12,12,0,0,1,4.1,16.2L548.2,346a12,12,0,0,1-16.7,4.3,347.93,347.93,0,0,1-35.4-24.9,352.66,352.66,0,0,1-35.4,24.9A12,12,0,0,1,444,346l-7.9-13.9a12,12,0,0,1,4.2-16.2,285.27,285.27,0,0,0,26.1-18,232,232,0,0,1-21-25.7,12,12,0,0,1,3.7-17.1l6.5-3.9,7.3-4.3a12.09,12.09,0,0,1,16,3.4,190.68,190.68,0,0,0,17.4,20.9c13.5-14.2,23.8-28.9,30-43.2H412a12,12,0,0,1-12-12V200a12,12,0,0,1,12-12h64V172a12,12,0,0,1,12-12h16a12,12,0,0,1,12,12v16h64a12,12,0,0,1,12,12ZM0,120V392a23.94,23.94,0,0,0,24,24H304V96H24A23.94,23.94,0,0,0,0,120ZM58.9,336.1,116.4,167a12,12,0,0,1,11.4-8.1h32.5a12.19,12.19,0,0,1,11.4,8.1l57.5,169.1A12,12,0,0,1,217.8,352H194.9a12,12,0,0,1-11.5-8.6L174,311.5H113.8l-9.1,31.8A12.09,12.09,0,0,1,93.2,352H70.3A12.08,12.08,0,0,1,58.9,336.1Z" transform="translate(0 -96)"/></svg>