<svg id="Calque_1" data-name="Calque 1" xmlns="http://www.w3.org/2000/svg" viewBox="0 0 462 311"><defs><style>.cls-1{fill:#fefefe;}.cls-2{fill:#a3b1db;}.cls-3{fill:#1c2242;}.cls-4{fill:#ec6a23;}.cls-5{fill:#1d2343;}.cls-6{fill:#6e3b44;}.cls-7{fill:#8b93b6;}.cls-8{fill:#e6eaf4;}.cls-9{fill:#dce0eb;}.cls-10{fill:#5f668d;}.cls-11{fill:#595f85;}.cls-12{fill:#7e88af;}.cls-13{fill:#222748;}.cls-14{fill:#5d6389;}.cls-15{fill:#5b6288;}.cls-16{fill:#626990;}.cls-17{fill:#262a4b;}.cls-18{fill:#292e4f;}.cls-19{fill:#7982a9;}.cls-20{fill:#757da4;}.cls-21{fill:#8e99c1;}.cls-22{fill:#7179a0;}.cls-23{fill:#1f2544;}.cls-24{fill:#313558;}.cls-25{fill:#939ec7;}.cls-26{fill:#2f3356;}.cls-27{fill:#2d3153;}.cls-28{fill:#9ba8d1;}.cls-29{fill:#2c3152;}.cls-30{fill:#292d4d;}.cls-31{fill:#96a3cc;}.cls-32{fill:#a0add6;}.cls-33{fill:#585d7e;}.cls-34{fill:#8c94b5;}.cls-35{fill:#8d94b5;}.cls-36{fill:#636889;}.cls-37{fill:#9ca9d2;}.cls-38{fill:#8b96be;}.cls-39{fill:#697097;}.cls-40{fill:#a0aed7;}.cls-41{fill:#737ba2;}.cls-42{fill:#ea6d2a;}.cls-43{fill:#ea6d2c;}.cls-44{fill:#eb6c28;}.cls-45{fill:#8b93b4;}.cls-46{fill:#a2b0d9;}.cls-47{fill:#ec6a24;}.cls-48{fill:#202646;}.cls-49{fill:#50557a;}.cls-50{fill:#232949;}.cls-51{fill:#4b5075;}.cls-52{fill:#2f314e;}.cls-53{fill:#5a6186;}.cls-54{fill:#868eb5;}.cls-55{fill:#e77134;}.cls-56{fill:#585f84;}.cls-57{fill:#fbfbfb;}.cls-58{fill:#aa503a;}.cls-59{fill:#be7d6f;}.cls-60{fill:#ec6923;}.cls-61{fill:#555b81;}.cls-62{fill:#52587d;}.cls-63{fill:#6a7198;}.cls-64{fill:#fefdfd;}.cls-65{fill:#676f96;}.cls-66{fill:#6e769d;}.cls-67{fill:#858fb6;}.cls-68{fill:#626a90;}.cls-69{fill:#f7c09b;}.cls-70{fill:#8893bb;}.cls-71{fill:#f9cbaa;}.cls-72{fill:#e1dfe6;}.cls-73{fill:#efe8e7;}.cls-74{fill:#9b97ab;}.cls-75{fill:#dabaab;}.cls-76{fill:#8a94bd;}.cls-77{fill:#4c5176;}.cls-78{fill:#eb6b26;}.cls-79{fill:#c89d99;}.cls-80{fill:#44486c;}.cls-81{fill:#e96d2c;}.cls-82{fill:#9fadd6;}.cls-83{fill:#e97232;}.cls-84{fill:#9ba7cf;}.cls-85{fill:#212748;}.cls-86{fill:#a2acd4;}.cls-87{fill:#949ec6;}.cls-88{fill:#98a5ce;}.cls-89{fill:#ee7735;}.cls-90{fill:#e47c48;}.cls-91{fill:#e87438;}.cls-92{fill:#3a3e62;}.cls-93{fill:#323659;}.cls-94{fill:#4e5479;}.cls-95{fill:#4b5176;}.cls-96{fill:#484e72;}.cls-97{fill:#454a6f;}.cls-98{fill:#43486c;}.cls-99{fill:#383b5e;}.cls-100{fill:#35385c;}.cls-101{fill:#3b3f63;}.cls-102{fill:#3e4367;}.cls-103{fill:#404569;}.cls-104{fill:#34375b;}.cls-105{fill:#666d94;}.cls-106{fill:#1f2545;}.cls-107{fill:#3c4165;}.cls-108{fill:#363a5e;}.cls-109{fill:#565879;}.cls-110{fill:#f9f9fa;}.cls-111{fill:#8c97bf;}.cls-112{fill:#8690b8;}.cls-113{fill:#959abf;}.cls-114{fill:#8f9ac1;}.cls-115{fill:#fdfcfb;}.cls-116{fill:#9aa6cf;}</style></defs><path class="cls-1" d="M351,316.9q-167.2,0-334.43.1c-3.9,0-4.57-1-4.52-4.67.22-16.13.1-32.26.1-48.4,5,1.19,9.22,4.18,13.9,6.1,1.38.77,2.78,1.47,4.2,2.16s2.75,1.4,4.14,2.06c1.76.94,3.56,1.81,5.22,2.92a66.78,66.78,0,0,0,7.59,4c1.34.73,2.72,1.4,4.1,2.07s2.76,1.38,4.14,2.08a19.82,19.82,0,0,1,3.71,3c9.37,4.55,18,10.51,28,13.87,1.62.57,3.14,1.45,4.94,1.35,4.19-.12,8.4.45,12.56-.45a15,15,0,0,1,3.12-.43c1,0,2.06,0,3.08,0,.76,0,1.52,0,2.28,0h3l2.34,0a21.68,21.68,0,0,1,2.42,0c5.28-.17,10.61.54,15.82-.87a27.29,27.29,0,0,1,4.24-.15c1.68,0,3.37,0,5.06,0,1.13,0,2.26-.1,3.39,0,5.09,0,10.2.43,15.24-.69a28.4,28.4,0,0,1,5-.25c1.09,0,2.2-.06,3.3,0,1.36,0,2.72,0,4.08,0h2.45c22.42-.73,44.82-1.93,67.26-2,4.4,0,4.68-.62,2.68-4.62q-7-14.06-14-28.13c-8.75-20.47-13.32-42.44-22.5-62.78-2-4.49-4.14-8.77-8.06-11.74-6.13-4.64-10.47-11.79-18.72-13.48-3.58-2.9-6.24-6.68-9.42-10-3.34-3.46-6.82-6-11.8-6-1.83-.77-2.18-2.61-3-4.13-.76-1.83-1.81-3.57-2-5.6a8,8,0,0,1,.06-2.29c1.52-4,5-5.68,8.46-7.4,5.6.83,10.6,3.69,16.28,4.48a44.18,44.18,0,0,0,36-11.53c-3.41-.36-6.58-.43-9-2.56-1.25-1.12-2.66-2.37-1.94-4.22s2.36-1.46,3.12-1.42c-9.19-4-15.83-11.12-16.8-22.1-.88-10.09-1.89-20.21-1.4-30.39.13-2.65.63-4.92,3.28-6.21,2.1-1,2.6-2.87,2.2-5.07a14.42,14.42,0,0,1-.41-4c1.37-12.69-3.59-23.08-11.68-32.34A55.7,55.7,0,0,0,159.54,9.61c-1.77-.46-3.57-.81-5.32-1.35-1.05-.33-2.41-.49-2.18-2.16Q311,6.1,469.9,6c3.43,0,4.12.67,4.1,4.1-.16,35.64-.1,71.28-.1,106.93a1.66,1.66,0,0,1-1.44.43,5.93,5.93,0,0,1-2.76-2.77c-2-4.09-5.9-4.42-9.69-5.08-36.57-6.36-73.14-12.73-109.52-20.14-11.09-2.26-22.21-4.43-32.92-8.22A36.1,36.1,0,0,0,312.74,80c-8.73-1.74-15.92,2.64-18.35,11.28C280.3,141.41,266,191.5,253.06,242c-1.89,7.4-3.86,14.82-5.18,22.37-.58,3.34-.89,6.68,2.51,9,3.7.46,7.41-.05,11.11.19,8.11,0,16.21.1,24.32-.05,8.44.37,16.79-1.66,25.25-1,8.23.18,16.45.13,24.68,0,6.3.32,12.51-.92,18.78-1,2.42,0,5-.37,6.89,1.87,1.05,2.15.32,4.22-.33,6.28-1.46,4.59-3.21,9.1-4.44,13.76-1.68,6.37-5.88,9.9-12.18,10.93-9.19,1.5-18.5,1.73-27.78,2.06-7.14.26-14.29-.05-21.43.13-1.43,0-3.33-.15-3.75,1.7s1.2,2.92,2.68,3.73a15.35,15.35,0,0,0,8.24,1.51c14.46-.63,28.86,1.13,43.31,1.05a8.93,8.93,0,0,1,4.84.92A1.09,1.09,0,0,1,351,316.9Z" transform="translate(-12 -6)"/><path class="cls-2" d="M311.07,273.79c-8.42-.4-16.74,1.73-25.17,1a170.52,170.52,0,0,0-24.76,0l-12.24.08c-.18-1.54.85-2.43,1.84-3.33,14.58-13.34,25.06-29.69,34.41-46.85,8.92-16.35,15.61-33.5,18-52.09a249.94,249.94,0,0,0,.79-51.74c-.65-8.15-1.87-16.19-3.28-24.22A13.22,13.22,0,0,1,302.32,88c.46-.87,1-1.92,2.16-1.81s1.41,1.29,1.58,2.24c.44,2.46.83,4.92,1.24,7.39a117.16,117.16,0,0,0,7.33,26.39c7.52,18,20.8,29,39.92,32.61,18.83,3.56,37.66,4.41,56.12-2.27a107.5,107.5,0,0,0,33.62-20.2c6.06-5.22,11.76-10.8,17.42-16.44,3-3,6.09-4,9.58-.82l1.63,2.07c1,6.68.17,13.41.49,20.1.09,1.94-.52,3.94.49,5.8v4c-.92.91-.26,2.19-.71,3.21a11,11,0,0,0,.18,5.61,196.53,196.53,0,0,1-9.27,48.25c-5.31,16.4-10.12,33-17.29,48.72-4.24,9.28-10.82,16.65-21.11,19.76-5.14-.31-10.28-.68-15.4.25-5.46-.3-8.28,2.3-9.85,7.57-1.9,6.34-4.55,12.48-6.91,18.69-5.81,15.28-8.69,17.32-24.9,17.31-3.57,0-7.14,0-10.7,0a1.74,1.74,0,0,1-1.4-.67c-1.08-2.47.28-4.56,1.14-6.66,10.13-24.46,19.52-49.18,27.14-74.55,2.68-8.92,5.33-17.85,7.13-27a31.3,31.3,0,0,0,.63-5.95c0-5.56-1.06-7-6.55-7.09-4.68-.11-9.25-1.09-13.92-1.19-7.43-.15-7.57-.14-8.81,7.37a16.07,16.07,0,0,1-.44,3c-.59,1.86-1,3.78-1.49,5.66a27.08,27.08,0,0,1-.62,2.84c-.7,2.34-1.19,4.74-1.95,7.06-.85,2.62-1.35,5.33-1.94,8-.81,1.88,0,3.62.54,5.33a70.12,70.12,0,0,1,4,22c0,1.52-.55,3.52,1.88,4a5.59,5.59,0,0,1,2.87,1.19c.37,5.48-1,10.39-4.89,14.42-3.65-2.44-7.82-1.5-11.52-.95a84.9,84.9,0,0,1-13.87.56A175,175,0,0,0,311.07,273.79Z" transform="translate(-12 -6)"/><path class="cls-1" d="M12.1,262.93q0-126.42-.1-252.83C12,6.67,12.67,6,16.1,6c37.31.16,74.63.1,112,.1C128.35,7.76,127,8,126,8.33A58.74,58.74,0,0,0,112.13,16C101.37,22.41,93.21,31.57,86,41.6A135.62,135.62,0,0,0,66.8,78.67,66.88,66.88,0,0,0,70,129.61c7,14.54,20.1,19.95,35.43,21.09,2.42.18,5-.56,7.1,1.47.76,5.08.61,5.25-5.3,6.52-4.31,1.47-8.73,2.8-10.42,7.78a16,16,0,0,1-4.18,1.45,66.87,66.87,0,0,1-9.26.69,4.48,4.48,0,0,1-1.94-1.26c-4.21-4.74-14.55-5.55-19.77-1.57-1.63,1.24-2.89,3.35-5.48,2.56-1.81-2.86-.18-5.79-.08-8.67.26-7.22-3.55-13.75-9.82-16.25-4.06-.95-3.77,1.52-2.94,4a40.24,40.24,0,0,1,2.1,12.69c.05,5.52-.3,10.83-2.94,15.92a17.43,17.43,0,0,0-1.39,10.21,33.35,33.35,0,0,1-.83,13.8A108,108,0,0,0,35,212c-.27.69-.57,1.36-.8,2.06-6.13,15-12.38,29.9-18.57,44.85C15,260.56,14.78,262.9,12.1,262.93Z" transform="translate(-12 -6)"/><path class="cls-3" d="M152,6.1c4.05,1.17,8.15,2.2,12.15,3.54,17,5.71,28.55,17.28,35.37,33.56,3.22,7.69,1.08,16.11,1.89,24.16a1.5,1.5,0,0,1-1.39,1.75c-4.64.5-4.14,3.91-4,7.06.3,8.3.81,16.6.94,24.91.17,11,5.31,18.92,14.78,24.24,1,.56,2,1.18,3,1.8.1.06.09.3.18.63l-5.07.29c2.74,6.86,8.63,5.63,14.33,5.43-12.85,15.73-34.44,19.05-56,9.28-.38-1.94,1-3.1,2.1-4.24,5.67-5.64,10.06-12.28,15-18.47,5.64-7,6.46-14.64,4.68-22.93a46.78,46.78,0,0,1-.35-20.19c.05-.76.1-1.52.16-2.27,0-1,.24-2.4-.82-2.61-5.42-1-4.47-5-4.36-8.73.1-3.11.41-6.21.44-9.31,0-1.06,0-2.14,0-2.22.08.09-.06,1.18,0,2.27,0,4.73-1.76,9-3.18,13.43-1.11,3.47-3.39,4.58-6.86,3.86A212.21,212.21,0,0,0,153,68a66.72,66.72,0,0,0-18.24-.17,7.85,7.85,0,0,1-2.36.22c-3.13-.41-2.62-2.36-1.79-4.36a24.87,24.87,0,0,0,2.11-12.58A9.89,9.89,0,0,0,130,45c-3.17,3.83-4.39,8.4-5.55,12.9-1.76,6.84-4.5,13.13-9.11,18.54-1.18,1.38-2.16,3-4.24,3.15a2.86,2.86,0,0,1-2.36-2.29c-1.2-4-3.67-7.42-5.6-11.08-1.46-9,1.37-17.1,5.4-24.84,6.86-13.21,16-24.75,26.48-35.26Z" transform="translate(-12 -6)"/><path class="cls-1" d="M472.79,150.09c.29-1.06-.26-2.42,1.11-3.08q0,82.94.1,165.89c0,3.42-.67,4.11-4.1,4.09-33.65-.16-67.3-.09-100.95-.09-.34-.22-.44-.41-.32-.6s.24-.27.36-.27c2.62-.29,5.24-.38,7.87-.88,7.26-1.39,11.66-5.49,14-12.43,2.66-7.83,6.33-15.35,8.49-23.3,1.66-6.08,4.6-8.61,10.69-7.65a77,77,0,0,1,15.77,0c10.36-4.88,17.27-12.66,21.55-23.41,5.24-13.13,9.66-26.54,14.11-39.92a217.34,217.34,0,0,0,10.44-48.68c.15-1.63.54-3.23.81-4.85A7.54,7.54,0,0,1,472.79,150.09Z" transform="translate(-12 -6)"/><path class="cls-4" d="M104.07,66.05c3.46,3.74,4.93,8.54,6.92,13.06,3.65,5.8,2.66,11.92,1.22,18.07a24.43,24.43,0,0,1-5.58,10.18,23.14,23.14,0,0,1-3.88,2.54,16.89,16.89,0,0,1-6.94,1.43c-1.56-.19-3.31,0-4-2,11.71-7.13,11.21-18,8.51-29.18C98.79,73.7,95.9,67.72,90.58,63.3A7.66,7.66,0,0,1,90.26,58c3.56-16.08,9.85-30.79,21.55-42.77,4.47-4.71,10.49-6.66,16.24-9.1h4c1.36,2-.24,3-1.3,4.24a44.52,44.52,0,0,1-6.8,5.84c-10.52,8-17,18.49-20.37,31.13-.85,3.22-1.36,6.55-2.51,9.65C99.6,61,100,64,104.07,66.05Z" transform="translate(-12 -6)"/><path class="cls-5" d="M12.1,262.93c4.22-7.48,6.86-15.65,10.19-23.52,3.73-8.85,7.32-17.75,11-26.63,3.08,1.45,1.89,4.3,2.18,6.67a16.64,16.64,0,0,1-1,4.73c-1.14,3.33-2.14,6.71-3.51,10A23.78,23.78,0,0,0,29.23,240c-4.35,7.6-1.24,15.75-1.75,23.63-.17,2.55.66,5.32-1.45,7.5-4.8-2.08-9.76-3.87-13.93-7.18Z" transform="translate(-12 -6)"/><path class="cls-6" d="M104.07,66.05c-6.22-1.53-6.19-1.52-4.6-7.79,3-11.69,5.54-23.51,13.54-33.18,4.16-5,9.12-9.09,14.18-13.09,2-1.59,4.65-2.77,4.86-5.89h3c-2.85,6-8.13,10.2-12,15.45-7.77,10.52-15.6,20.93-18.4,34.15C103.88,59.17,104.16,62.6,104.07,66.05Z" transform="translate(-12 -6)"/><path class="cls-7" d="M473.9,143c-2.12-3.35-.76-7-.93-10.57-.26-5.1-.06-10.22-.05-15.33a3.23,3.23,0,0,1,1-.08Z" transform="translate(-12 -6)"/><path class="cls-8" d="M369,316c0,.29,0,.58,0,.87H357c-.29-.17-.39-.33-.28-.49s.2-.22.3-.22Z" transform="translate(-12 -6)"/><path class="cls-9" d="M357,316.19c0,.23,0,.47,0,.71h-6c0-.28,0-.56,0-.84,1.83-1.85,3.8-1.72,5.87-.44A.71.71,0,0,0,357,316.19Z" transform="translate(-12 -6)"/><path class="cls-3" d="M471.29,115c-4.41-2.06-7.27.12-10.26,3.23-12.9,13.34-26.59,25.77-43.95,33.16-24.65,10.5-49.78,9.54-74.53,1-18.27-6.27-27.19-21.5-32.54-39.1a148.92,148.92,0,0,1-5.29-26.8c-3.12,4-3.12,8-2.38,12.41,5.66,33.81,7.11,67.64-4.5,100.5a194.47,194.47,0,0,1-41.63,68.63c-2.25,2.41-4.87,4.49-7.31,6.71-3.07-3-3.24-6.54-2.41-10.49,6-28.61,14.12-56.7,21.8-84.88,8-29.47,16.45-58.83,24.7-88.24,2.91-10.38,10.8-15.28,21.28-12.28,49,14,99.53,20.56,149.47,29.89C467.86,109.6,469.71,111.84,471.29,115Z" transform="translate(-12 -6)"/><path class="cls-3" d="M165,161.09c4.05-1,7.19.38,10.14,3.31,4,3.94,8,7.76,10.87,12.61,2.59,1.32,3.24,4,4.56,6.27,4.37,7.37,8.27,15,12.57,22.41,1.56,2.69,3.22,5.42,3,8.76a51.3,51.3,0,0,1-2.9,10.56c-1.06,2.83-.38,4.72,2.29,6.19,9.94,5.47,8.25,6.25,5.47,15a165.75,165.75,0,0,0-7.69,43.52c-.19,4.58-1.51,5.49-5.64,3.77-5.06-2.11-10.24-3.94-15.17-6.36a29.79,29.79,0,0,0-3.33-1.43,45.92,45.92,0,0,0-5-2.06c-1.43-.63-2.8-1.35-4.23-2-1.61-.72-3.31-1.2-4.88-2-.8-.38-1.59-.77-2.4-1.11-2.3-.87-4.53-1.89-6.86-2.67a31.36,31.36,0,0,1-5-2.09,46,46,0,0,0-4.9-2.1c-1.64-.68-3.47-.88-5-1.92a14.66,14.66,0,0,0-4.17-2c-1.11-.39-2.2-.85-3.31-1.26a11.61,11.61,0,0,1-3.47-1.72c-2.2-2-2.29-4.63-2.3-7.29,0-7.57,0-15.14-.06-22.72,0-1.68.66-3.79-1.86-4.49a11.36,11.36,0,0,1-1.52-.41c-1.93-.87-4-.63-6-.68-1.28,0-2.55,0-3.83,0-.78,0-1.57,0-2.35,0a15.06,15.06,0,0,1-3.21-.31,6.1,6.1,0,0,1-1.55-.61c-1.74-1-2.26-2.68-2.51-4.52-.88-6.47-2.16-12.87-3.06-19.33-.24-2.4-1.29-4.75-.53-7.23.17-.46.31-1.09.72-1.26,7.06-2.92,13.68-6.83,20.86-9.49,4,4.11,6,9.46,8.9,14.24a286.09,286.09,0,0,0,32,42.44c7.32,7.37,14.44,14.93,21.18,22.84a29.63,29.63,0,0,0,4.82,5.37c1.78,1.91,3.82,3.61,5.27,5.83a24.07,24.07,0,0,0,2.93,3.49c.21.21.42.46.6.66.66-.86-.4-1.46-.31-2.21-.38-1.84-.36-3.75-1-5.54-.4-2.27-.65-4.55-1.17-6.8-.36-2.34,0-4.78-.88-7.06-1.86-7.36-2.06-15-4.18-22.32-1.65-7.26-3.52-14.47-5.23-21.72-1.11-4.17-1.93-8.43-3.43-12.5Q177.46,187,171.74,171c-.78-2.18-.89-5.69-4.92-4.71-.93,1.56,0,3,.25,4.49a22.14,22.14,0,0,1-.06,7.87,21.38,21.38,0,0,0-.74,5.74c-.3,1.14-.33,2.46-1.91,2.68-1.48-.89-1.62-2.39-1.65-3.87q-.19-8.83,0-17.67C162.74,163.73,163,161.92,165,161.09Z" transform="translate(-12 -6)"/><path class="cls-2" d="M185.88,53.2a51.08,51.08,0,0,1-.2,13.92c-.4,2.15-.23,3.28,2.17,2.92,5.48-.84,4,2.34,3.09,5.23-2.36,1.27-4.34-.8-7.19-.67,2.79.7,5.24.77,7,2.57a62,62,0,0,0,1,22.14,23.85,23.85,0,0,1-4.28,20.16,222.47,222.47,0,0,1-19.27,23.28c-1.63,3.23-6.11,3.62-7.26,7.33a2.84,2.84,0,0,1-2-.36c-2.19-.82-4.54-.26-6.77-.71a28.38,28.38,0,0,1-4.06-1.23c-3.13-1.63-6.46-2.87-9.33-5a45.61,45.61,0,0,0-5.27-4.23c-.78-.44-1.66-1.57-2.17.19-.36,1.24-.16,2.68-1.33,3.63-8.15-1.92-14.75-5.93-18.48-13.77.57-3.63-.4-7.37.84-10.94,1.11-1.61,2.1-.67,3.1.15,1,1.16,1.84,2.55,3.23,3.38,2.22.8,2.76-1.16,3.71-2.32,1.54-1.86,2.47-4.23,4.73-5.47,1.05-.48,2.21-.61,3.29-1,4.76-1.59,5.22-2.57,3.51-7.46a4.33,4.33,0,0,1-.26-1.92c2.36-4.06,4.42-8.34,8.23-11.35,5.6-.94,5.93-1.43,5.2-7.85,1.05-4,3.52-7.14,6.34-10,.88-.76,2.4-.51,2.93-1.82-.14-2.13-2.36-2.31-3.34-3.62a1.19,1.19,0,0,1,.05-1.26c7.71-.25,15.2,1.4,22.66,3,2.89.61,4.2,0,4.95-2.88,1.23-4.65,3-9.16,3.54-14C184.75,52.48,185.31,52.48,185.88,53.2Z" transform="translate(-12 -6)"/><path class="cls-3" d="M356.8,315.62l-5.87.44q-25.64-.74-51.27-1.44c-3.05-.07-5.94-.5-8.41-2.45-1.66-1.33-2.76-3-2.08-5.19s2.63-2.3,4.5-2.32c4.48,0,9-.06,13.45,0a288.56,288.56,0,0,0,35.28-1.48c6.87-.76,11.66-3.41,13.08-11.14,1.12-6.11,3.77-11.94,5.75-17.9q2.31-7.1,4.63-14.19c-1.37-2.65.49-4.77,1.14-7.09a91.45,91.45,0,0,0,3.07-8.79c.76-2,1.35-4,2-6,.39-1.08.74-2.17,1.07-3.27a41.76,41.76,0,0,1,1.88-5.87,30.63,30.63,0,0,0,1.17-3.2c.7-1.95,1.31-3.93,1.93-5.9s1.34-4,1.93-5.94c1.48-7.54.65-9.28-5.23-10.92a12,12,0,0,1-1.31-.33,16,16,0,0,0-7.21-.19,5.8,5.8,0,0,1-3.27-.7,2.74,2.74,0,0,1-.85-1,10.67,10.67,0,0,1,.66-5.35c.92-3.12,2.24-4.54,6-3.91a180.85,180.85,0,0,0,19.34,1.7c4.57.25,6.38,2.17,6,6.88-1,11.66-4.53,22.73-7.83,33.83-7.94,26.71-17.95,52.67-28.52,78.43C357.41,313.4,357.14,314.52,356.8,315.62Z" transform="translate(-12 -6)"/><path class="cls-2" d="M182,285.92l20.42,8v-11c0-14.5,4.57-28.08,8.76-41.68,1.14-3.71.19-5.25-2.91-6.95-8-4.37-7.95-4.51-5.23-13.3.73-2.37,1.55-4.72,2.33-7.08.26-1.32.35-2.88,2.4-1.75,1.32,1.14,1.83,2.75,2.45,4.28,5.26,12.93,10.34,25.92,14.64,39.21a24.55,24.55,0,0,1,.75,12.75c-1.65,8.14-3.39,16.26-5.17,24.37-1,4.28-.19,5.31,4.13,4.61,5.63-.93,11.26-.66,16.9-.81,4.35-.11,4.72-.62,3.2-4.69-2.45-6.53-5.43-12.85-8.08-19.31-.76-1.83-1.68-3.63-1.61-5.71a2.89,2.89,0,0,1,1.1-2.12c5.45,10.62,10.83,21.28,16.39,31.84,1,2,.55,2.67-1.31,3a14.56,14.56,0,0,1-2.48.17c-17.08.42-34.16.72-51.24,1.3-6.12.21-12.21,1.14-18.36.67,1.4-3.33.4-6.81.65-10.2C179.89,289.52,178.6,286.67,182,285.92Z" transform="translate(-12 -6)"/><path class="cls-3" d="M87,303c-1.12-.13-2.41.05-3.35-.45-8.54-4.49-17-9.1-25.53-13.67-2.34-4.39.43-8.14,1.51-12.1.83-2.37,1.4-4.82,2-7.24a42.83,42.83,0,0,1,2.51-7.81c1.61-3.63,2.13-7.61,3.58-11.29,1.66-3.24,1.15-7.61,5-9.7,1.76.82,2.21,2.6,3,4.12,1.11,3.39,2.88,6.52,4.11,9.86,1.06,2.36,2.08,4.74,3,7.14,1.25,3.28,2.66,6.51,3.84,9.82a34.9,34.9,0,0,0,3.87,8.53,23,23,0,0,0,3.91,5.13c1.63,1.71,3.31,3.37,5,5a40.7,40.7,0,0,0,4.2,4c1.6,1.3,3.59,2.08,5,3.68,1,1.6.09,2.4-1.29,3C100.67,302.06,94,304.43,87,303Z" transform="translate(-12 -6)"/><path class="cls-2" d="M206.83,212l-1.44,1.9c-2-6.74-6.32-12.34-9.47-18.52S189.35,183.12,186,177c8.87,0,12.46,8,18.53,12.24,8.54,6,10.25,15.94,14,24.7,7,16.5,10.61,34.21,17.55,50.75l-.09,2.2c-2.12.26-2.34-1.6-2.86-2.83q-13.92-32.55-27.59-65.19a9.73,9.73,0,0,1-.61-2.19C204.17,201.48,207.35,206.5,206.83,212Z" transform="translate(-12 -6)"/><path class="cls-10" d="M114.06,228l4,.08c1.29,1.29,1.44,2.94,1.45,4.62.09,8.79-.24,17.6.84,26.36-1.71,8.36-.34,16.81-.68,25.21-.2,4.62,0,9.26-.07,13.88,0,2,0,4-1.55,5.58h-2c-2-3-2.22-6.51-2.34-9.94-.3-8.41-.7-16.86-.7-25.23,0-8.66-1.25-17.42.45-26.07.33-1.69-.55-3.26-.59-4.89C112.8,234.36,111.79,231,114.06,228Z" transform="translate(-12 -6)"/><path class="cls-11" d="M108.06,299.92c1-.66,0-1.19-.11-1.78-2.32-3.14-2.48-6.8-2.48-10.49,0-12.31,0-24.61,0-36.92a161.32,161.32,0,0,0-.59-17.44c-.23-2.13-1.48-5.88,3.29-5.38a2.15,2.15,0,0,1,.91,0c2.2,3.17,2.38,6.81,2.4,10.48.06,15.79,0,31.59,0,47.38,0,4.18,1.33,8.2,1,12.39-.17,2,.12,4-1.42,5.65h-3A2.84,2.84,0,0,1,108.06,299.92Z" transform="translate(-12 -6)"/><path class="cls-12" d="M146.07,270.85a10,10,0,0,1,5,2.07c2,9.39,3.36,18.82,1.64,28.42-.77,1.6-2.49.69-3.62,1.36l-3,0c-2.79-4.15-1.24-9-2.18-13.5s-.42-8.91-.25-13.37C143.67,273.89,143.85,271.84,146.07,270.85Z" transform="translate(-12 -6)"/><path class="cls-13" d="M28.09,239c.45-1.77.58-3.68,2.08-5,.72,0,1.47.25,1.52.91.5,5.8,4,10.58,5.39,16.09-.7,6.25-.25,12.53-.56,18.78-.1,2,.77,4.87-2.68,5.33a7.29,7.29,0,0,1-3.8-2,4.51,4.51,0,0,1-1.19-2.68c.57-9.22-2.31-18.39-.35-27.62C28.77,241.46,29,240.13,28.09,239Z" transform="translate(-12 -6)"/><path class="cls-14" d="M114.06,228c1.06,9.45.7,19,.52,28.42-.16,8.23.66,16.39.5,24.59-.15,7.58-.21,15.18,1,22.71l-3,0c-2-5.27-1-10.82-1.39-16.22-1.24-16.95-.47-33.95-.54-50.92,0-2.87-1.53-6,.94-8.63Z" transform="translate(-12 -6)"/><path class="cls-15" d="M112.06,228c-.48,25.27.48,50.52,1,75.77l-2,.07c-2.3-25.26.39-50.64-2-75.9Z" transform="translate(-12 -6)"/><path class="cls-16" d="M118.05,303.74c0-12.32,0-24.64,0-37a26.59,26.59,0,0,1,1-7.85c3.87,1.26,1.51,5.24,3.26,7.43,2.13,6.63,1,13.46,1.17,20.2.09,5.11.41,10.24-.49,15.33-.46,1.43-1.83,1.41-2.93,1.84Z" transform="translate(-12 -6)"/><path class="cls-17" d="M33.84,275c2-1.48,1.11-3.63,1.23-5.51.41-6.56-.88-13.2,1-19.68,4.29.38,5.33,3.87,6.73,7a124.06,124.06,0,0,0-.51,16.7c.09,1.8.74,5.06-3.21,4.32A14.12,14.12,0,0,1,33.84,275Z" transform="translate(-12 -6)"/><path class="cls-18" d="M39.13,277.9c3.81-1.83,2.06-5.38,1.73-7.8-.66-4.87.32-9.4,1.22-14,3.31-.82,5.1.88,6.18,3.75.72,6,.33,12.06.27,18.1a5,5,0,0,1-1.46,4C44.06,281.31,41.71,279.4,39.13,277.9Z" transform="translate(-12 -6)"/><path class="cls-19" d="M146.07,270.85c-2.15,5.95-1.26,12.16-.76,18.13.39,4.59.57,9.17.72,13.76l-5,.11c-2.34-4.81-2.31-29.45,0-34.08Z" transform="translate(-12 -6)"/><path class="cls-20" d="M141.08,268.77l0,34.08h-4c-1.37-1.44-1.47-3.24-1.48-5.08q0-12.86,0-25.71c0-1.82,0-3.66,1.49-5.05A6.56,6.56,0,0,1,141.08,268.77Z" transform="translate(-12 -6)"/><path class="cls-21" d="M149.06,302.7c.78-1,1.91-.77,2.95-.85a7.88,7.88,0,0,1,4.73-1.5c2.52-.72,1.82-2.85,1.79-4.5a76.45,76.45,0,0,1,1.19-14.65c.3-1.73.16-4.31,3.34-3.29a2.17,2.17,0,0,1,2,.89c1.55,7.7,4,15.41,0,23.1C159.77,303.33,154.4,302.73,149.06,302.7Z" transform="translate(-12 -6)"/><path class="cls-22" d="M137.05,267v35.84c-5.61,1.15-11.3.92-17,.88l2-.9a5.07,5.07,0,0,1,2.92-1.16c.79-.08,1.58-.09,2.38-.1a20.75,20.75,0,0,0,3.93-.36c1.77-.89,1.31-2.56,1.27-3.95-.2-8.92.51-17.85-.48-26.76-.2-1.76-.88-4.1,2.06-4.62Z" transform="translate(-12 -6)"/><path class="cls-23" d="M28.09,239c1.33.62,2.22,1.68,1.91,3.13-2.18,10.34,1.37,20.66,0,31a6.4,6.4,0,0,1-4-1.95c-.15-7.19.59-14.38-1.06-21.56C24.1,245.76,27.89,242.76,28.09,239Z" transform="translate(-12 -6)"/><path class="cls-24" d="M61,276.91c-1.31,3.89-3.34,7.61-2.92,11.93L55,286.11c-1.53-2-1.58-4.3-1.49-6.6.27-6.39-.78-12.83.75-19.18,1.14-1.93,2.71-2.64,4.85-1.7,2.63,4.45.75,9.36,1.4,14C60.71,274.06,59.85,275.61,61,276.91Z" transform="translate(-12 -6)"/><path class="cls-25" d="M165,301.9c1.72-7.7-1-15.4,0-23.1a10.14,10.14,0,0,1,5,2.1,31.47,31.47,0,0,1,0,21Z" transform="translate(-12 -6)"/><path class="cls-26" d="M55.08,259.93Q55,273,55,286.11a7.86,7.86,0,0,1-4-2.05c-2.32-3.26-1.4-7-1.45-10.55,0-4.1-.44-8.23.42-12.31a3.71,3.71,0,0,1,3.21-2.65A1.75,1.75,0,0,1,55.08,259.93Z" transform="translate(-12 -6)"/><path class="cls-24" d="M160,149c.3.35.59.7.88,1.06,0,.65,0,1.3,0,2,.89,15.06.75,30.13.23,45.21a2.48,2.48,0,0,1-1.92,2,3.14,3.14,0,0,1-2.07-1.93c-1.08-12.85-.26-25.72-.45-38.59,0-3.09-.6-6.28.78-9.28A1.68,1.68,0,0,1,160,149Z" transform="translate(-12 -6)"/><path class="cls-27" d="M51.08,260q0,12,0,24.06c-1.69,0-2.8-1.1-4-2.11v-23C48.82,257.75,50,258.59,51.08,260Z" transform="translate(-12 -6)"/><path class="cls-28" d="M174.38,282.71a9.87,9.87,0,0,1,4.92,2,113.09,113.09,0,0,1,.14,11.93c0,2-.27,4-2.39,5.1h-4c-2.74-5.77-1.47-11.75-.82-17.67A1.62,1.62,0,0,1,174.38,282.71Z" transform="translate(-12 -6)"/><path class="cls-29" d="M160.07,198.09q0-20.9,0-41.81c0-1.45-.41-3,.83-4.24l1.91,5c.58,13-.16,26.06.81,39.07a3.45,3.45,0,0,1-.27,1.77A2.31,2.31,0,0,1,160.07,198.09Z" transform="translate(-12 -6)"/><path class="cls-30" d="M162.75,197c-1.59-7.36-.6-14.81-.62-22.21,0-5.89-1-11.86.66-17.71.75,1.35,1.49,2.7,2.24,4-1.71,8.62-1.43,17.24-.21,25.88C166.78,190.85,165.88,194.14,162.75,197Z" transform="translate(-12 -6)"/><path class="cls-31" d="M174.38,282.71c-2.58,2.6-1.07,5.85-1.29,8.8-.26,3.4-.07,6.83-.07,10.24l-3,.11v-21A7.5,7.5,0,0,1,174.38,282.71Z" transform="translate(-12 -6)"/><path class="cls-32" d="M177.05,301.76c1.89-3.73.58-7.72,1-11.58.2-1.86-.7-4,1.27-5.45a3.39,3.39,0,0,1,2.72,1.19c-2,3.4-1.35,7.11-.51,10.48.73,2.9.05,4.29-2.41,5.31Z" transform="translate(-12 -6)"/><path class="cls-33" d="M108.06,299.92v3.93l-2.68.17c-4.72,1-9.56-.25-14.28.7-1.7.19-2.93-.72-4.1-1.76Z" transform="translate(-12 -6)"/><path class="cls-34" d="M311.07,273.79a74.62,74.62,0,0,1,24.77-.05Z" transform="translate(-12 -6)"/><path class="cls-35" d="M261.14,274.75a74.29,74.29,0,0,1,24.76,0Z" transform="translate(-12 -6)"/><path class="cls-36" d="M91.09,304.72c4.69-1.69,9.51-.62,14.28-.7A61,61,0,0,1,91.09,304.72Z" transform="translate(-12 -6)"/><path class="cls-37" d="M368.08,253.13l-2.22,6.81H363c-2.52-3.35-1.26-7.35-1.69-11-.89-7.57-3.79-14.59-5.31-22a15,15,0,0,1,2-8c2.43.5,3.41,2.38,4.2,4.44C365.83,233,368.93,242.65,368.08,253.13Z" transform="translate(-12 -6)"/><path class="cls-38" d="M368.08,253.13c-1-5.65-1.78-11.37-3.18-16.92-1.52-6-3-12.16-6.95-17.25a15.89,15.89,0,0,1,2-7c6.7,9.69,11.58,20,11.11,32.19A26.9,26.9,0,0,1,368.08,253.13Z" transform="translate(-12 -6)"/><path class="cls-12" d="M371,244.12A88,88,0,0,0,362,217a53.9,53.9,0,0,1-2.06-5c0-1,.09-2,.13-3a1.71,1.71,0,0,1,2.6.43c5.78,8.75,10.6,17.85,10.39,28.77A12.23,12.23,0,0,1,371,244.12Z" transform="translate(-12 -6)"/><path class="cls-39" d="M362.21,200.75a1.31,1.31,0,0,1,.72.26c6.83,8.21,12.68,16.88,13.12,28.08-.66,2-1.31,4.07-2,6.1-2.12-3-2.46-6.76-3.66-10.14A108.29,108.29,0,0,0,363,209.42c-.93-1.71-2.21-3.4-1.05-5.53C362,202.85,362.11,201.8,362.21,200.75Z" transform="translate(-12 -6)"/><path class="cls-40" d="M356,227c5.54,10.32,7.14,21.46,7,33-2,.12-3.11-.66-3-2.85.44-9.19-1.47-18-4.64-26.53C354.82,229.27,354.65,228,356,227Z" transform="translate(-12 -6)"/><path class="cls-41" d="M361.9,203.89c1.47,6,5.58,10.64,7.69,16.3,1.84,4.9,4.06,9.68,4.49,15-.08,1.08-.09,2.18-1,2.94-2.19-9.88-5.41-19.36-11-27.91a2.7,2.7,0,0,0-2-1.28C360.67,207.26,361.29,205.57,361.9,203.89Z" transform="translate(-12 -6)"/><path class="cls-42" d="M301,223c0,2.42-1.19,3.72-3.29,3.8a3.25,3.25,0,0,1-3.61-3.32,3.15,3.15,0,0,1,3.33-3.54A3.11,3.11,0,0,1,301,223Z" transform="translate(-12 -6)"/><path class="cls-43" d="M306.08,211.43c-.11,2-1.16,3.47-3.35,3.44a3.29,3.29,0,0,1-3.53-3.43,3.23,3.23,0,0,1,3.43-3.49C304.77,207.93,306,209.11,306.08,211.43Z" transform="translate(-12 -6)"/><path class="cls-44" d="M306,194c2.14.17,3.29,1.31,3.3,3.46s-.93,3.45-3.19,3.47-3.32-1.24-3.34-3.35A3.27,3.27,0,0,1,306,194Z" transform="translate(-12 -6)"/><path class="cls-7" d="M425.82,271.76H410.05A31.32,31.32,0,0,1,425.82,271.76Z" transform="translate(-12 -6)"/><path class="cls-45" d="M472.79,150.09l-.06,4.81A3.46,3.46,0,0,1,472.79,150.09Z" transform="translate(-12 -6)"/><path class="cls-2" d="M122.81,187.17c-6.52,4.14-13.73,6.78-20.8,9.74-1.16,1.64-2.88,2.63-4.44,3.81-1.73,1.43-3.22,3.09-4.82,4.65a22,22,0,0,1-2.47,2.15,49.37,49.37,0,0,0-4,3,39,39,0,0,0-4.8,2.9c-.71.44-1.46.81-2.2,1.21A29,29,0,0,0,76,216.71c-1.89,1.19-3.72,2.47-5.55,3.74a16.36,16.36,0,0,0-4.12,3.38c-2.37,2.07-4.1,4.9-7.21,6.08-7.87.91-8.27.75-10.76-6.3-1.13-3.19-3.8-4-6.49-4.68-3.63-1-5.83-2.92-5.78-6.89.43-4.09,2.34-7.84,2.82-11.93,2.43-6.7,0-13.67,1.09-20.44a14.21,14.21,0,0,1,1.11-4.28C46,166,45,156.64,41.67,147.17c-.74-2.11-1.42-4.37.89-5.77a2.91,2.91,0,0,1,4.51,1.42c6.07,4.18,6.55,10.75,7.31,17.18.32,2.77-.25,5.67,1.26,8.25,2.09,1.55,3.29-.33,4.73-1.24,7.31-4.61,15.07-4.61,21.75,0l.93.71a4,4,0,0,0,.89,1,8.84,8.84,0,0,1,4,4.44,9,9,0,0,0,3,3.31c1.29.94,2.89,1.43,3.92,2.73,2.17,2.53.67,6.08,2.41,8.73,2.53,1.37,4.86.12,7.16-.61,6.77-2.14,13.26-5.17,20.34-6.35a3.71,3.71,0,0,1,2.18.68C127.61,185,125.3,186.16,122.81,187.17Z" transform="translate(-12 -6)"/><path class="cls-3" d="M112.27,128.91c4.51,6.3,10.78,10.21,17.76,13.18a5.52,5.52,0,0,1,2.92.41c1.66.83,4.29,1,4,3.5-.22,2-2.36,2.55-4.11,3.07-1.1.33-2.2.65-3.28,1.06a67.79,67.79,0,0,1-12.44,2.77c-1.81.28-3.58.46-5.18-.73-5.63-.19-11.28-.23-16.8-1.62-18.62-4.69-29.69-19.37-32.25-40.2-2.81-22.83,5-42.34,16.51-61.07,7.33-12,15.89-22.91,27.28-31.36,1.54-1.14,2.88-2.83,5.12-2.72,0,1.9-1.5,2.86-2.46,4.17C99.76,32.42,92.52,46.45,91.22,63c.27,2-1.37,2.58-2.68,3-5.94,2.1-8.4,7.1-9.52,12.51a38.37,38.37,0,0,0,.81,19.71c1.69,5.23,5,9,10.28,10.68a5.73,5.73,0,0,0,6.14,1.31l6.63-1.4A105.15,105.15,0,0,1,112.27,128.91Z" transform="translate(-12 -6)"/><path class="cls-3" d="M124.94,181.85c-7.5,2.46-15,4.94-22.48,7.38-2.16.7-4.36,1.61-6.47-.18-.26-.42-.61-1.05-.37-1.36,4.15-5.09.92-10.5.69-15.76-.1-2.11-.82-4.22.59-6.16-1.24-1.42-.91-2.43.61-3.52a26.28,26.28,0,0,1,8.58-4.36c7.41-.9,9.66.57,11.71,7.64a2.31,2.31,0,0,1-1.2,1.83,3,3,0,0,1-1.93-.12c2.11,6.87,4,10.15,7.16,12.42C123,180.16,124.94,179.66,124.94,181.85Z" transform="translate(-12 -6)"/><path class="cls-46" d="M117.18,165.78c-2.41-4.45-4.53-9.29-11.09-7.89,2.48-1.36,7.22-.42,5.86-5.72L130,149c3.79-.65,3.45,2.39,3.48,4.37.15,9.27.55,18.54-.21,27.8-1.46,3.9-3.26,1.38-5,.26-.38-.32-.74-.68-1.09-1-2.52-2.46-5.33-4.67-6.93-7.93C119.35,170.15,117.54,168.29,117.18,165.78Z" transform="translate(-12 -6)"/><path class="cls-47" d="M37.14,211.72c.23,3.8,2.12,5.71,6,6.16,4.37.5,7.36,2.76,7.18,7.75-.09,2.54,1.28,3.56,3.72,3.39l6.41-.43c3.82,1.37,1.29,4.15,1.41,6.34-1.3,2.52-3.61,1.63-5.65,1.68a56.86,56.86,0,0,0-11.81.16c-8.4,1-12.25-3.22-10.87-11.6.19-1.69,1.68-3.19.77-5.06-1.45-2.28.82-5.11-1.07-7.33l.59-.84A2.61,2.61,0,0,1,37.14,211.72Z" transform="translate(-12 -6)"/><path class="cls-48" d="M54.91,169.08c-2.19-1.67-1.84-4.13-1.79-6.36a31,31,0,0,0-6-19.9c4.22.52,9,6.35,10.11,12.24.82,4.34-.28,8.5-1,12.7C56.46,168.87,56.14,169.41,54.91,169.08Z" transform="translate(-12 -6)"/><path class="cls-49" d="M96.9,165.77c.76,5.55,1.43,11.12,2.32,16.64.39,2.4,2,5.18-2.67,4.42a21.94,21.94,0,0,0-.56,2.22c-2.09-2.89.07-6.7-2.06-9.59-1.73-4.07-3.61-8.12-.88-12.5Z" transform="translate(-12 -6)"/><path class="cls-50" d="M54.91,169.08l1.27-1.32c.6-.22,1.42-.25,1.75-.67,5.84-7.5,13.57-4.94,21-3.91,2,.27,3,1.8,3.23,3.84-8.13-3.12-15.94-3.25-23.24,2.29A2.69,2.69,0,0,1,54.91,169.08Z" transform="translate(-12 -6)"/><path class="cls-51" d="M93.05,167q.44,6.25.88,12.5l-4-2.34c-.7-1.78-1.9-3.31-2.61-5.09-.52-2.19-2.57-2.27-4.15-3l-.09-1.3Z" transform="translate(-12 -6)"/><path class="cls-52" d="M37.14,211.72l-3.28.22c1.47-4,2.8-8.14,5.09-11.83A21.08,21.08,0,0,1,37.14,211.72Z" transform="translate(-12 -6)"/><path class="cls-53" d="M111,98a48.18,48.18,0,0,0,0-18.88A39.83,39.83,0,0,0,123.12,58a46.2,46.2,0,0,1,6.68-15.67c6.12,6.74,5,13.77,2.46,21.11-.33.95-3.34,2.46-.15,3.73,1,1.38.21,2.57-.5,3.66Q123.41,83.36,115,95.74C114.08,97.05,113.14,98.66,111,98Z" transform="translate(-12 -6)"/><path class="cls-54" d="M111,98c2.9-1.41,3.91-4.38,5.51-6.82,5.24-8,11.12-15.54,15.59-24L134,67c2.72-1,5.52-.25,8.28-.45,1.89.62,1.31,2,1,3.25-.73,1.62-2.29,2.52-3.34,3.87a12.84,12.84,0,0,1-1.53,1.51c-4.66,4.83-7.69,10.82-11.48,16.27-4.09,5.86-7.94,11.89-12,17.81-1.2,1.77-2.31,3.8-5,3.39-2.47-1.22-3.47-3.42-4-5.94A40.7,40.7,0,0,0,111,98Z" transform="translate(-12 -6)"/><path class="cls-55" d="M190.73,77.17l-8.39-1c-1-.1-2.22.11-2.19-1.33,0-1.17,1-1.6,2.12-1.65,3.08-.14,5.87,1,8.67,2Z" transform="translate(-12 -6)"/><path class="cls-53" d="M143.05,67.1,134,67a36.31,36.31,0,0,1,19,.07,2.24,2.24,0,0,1,.1.77c-.76,1.06-1.87,1.11-3,1C147.82,68.14,145.1,68.9,143.05,67.1Z" transform="translate(-12 -6)"/><path class="cls-56" d="M185.88,53.2l-1.68,0V49.81A3.12,3.12,0,0,1,185.88,53.2Z" transform="translate(-12 -6)"/><path class="cls-6" d="M90.16,109.94c-7.13-1.11-10.41-6.29-11.91-12.42-2.11-8.6-2.25-17.15,1.67-25.63,2.41-5.2,7.42-6.14,11.29-8.94,8.49,5.53,10.23,14.54,11.7,23.48a27.75,27.75,0,0,1-1.77,15.09c-1.69,4.13-4.26,7-8.88,7.65C91.71,109.84,90.79,109.49,90.16,109.94Z" transform="translate(-12 -6)"/><path class="cls-57" d="M105.94,106.75c2.11,1.19,2.21,3.89,4,5.33a5.26,5.26,0,0,1,1.86,1.38,22,22,0,0,1,1.63,2.44,1.36,1.36,0,0,1-.16,1.13c-.6,3.94.66,8-1,11.88-3.93-6.33-7.48-12.83-9.39-20.11Z" transform="translate(-12 -6)"/><path class="cls-58" d="M90.16,109.94a1.78,1.78,0,0,1,2.09-.78c1.08,1.33,2.71.51,4,1C94.16,111.47,92.14,111.05,90.16,109.94Z" transform="translate(-12 -6)"/><path class="cls-2" d="M34.16,224c-.26,10.61,1.71,12.24,12.54,11,3.59-.4,7.27-.55,10.8.69,1.37,4.57-1.28,8.81-1.07,13.29-.79,3.27-.14,6.9-2.45,9.79L51.08,260l-4-1.06c-1.55-1.16-3-2.45-5-2.86l-6-6.23a34.68,34.68,0,0,1-5.95-15.92,46,46,0,0,1,3.35-10.22Z" transform="translate(-12 -6)"/><path class="cls-59" d="M34.16,224a.67.67,0,0,1-.64-.27c.28-1.2.55-2.4.82-3.6C35.54,221.46,35.33,222.74,34.16,224Z" transform="translate(-12 -6)"/><path class="cls-60" d="M357.41,100.27c13.4,2.27,26.17,4.45,38.93,6.6q20.88,3.51,41.76,6.94c2.25.37,4.85.72,4.37,3.53-.51,3-3.11,2.58-5.62,2.16-25-4.24-50.09-8.37-75.14-12.54-1.47-.24-2.93-.61-4.4-.83-1.93-.29-3.21-1.36-3-3.29A2.86,2.86,0,0,1,357.41,100.27Z" transform="translate(-12 -6)"/><path class="cls-4" d="M160.07,198.09l2.66-.25c4.7-1,7,.42,10.24,6a15.06,15.06,0,0,1,.07,6.27c-1.62,4.28-.36,7.58,3,10.67,5.46,5.1,10.64,10.51,15.87,15.86,2.68,7.33,3,15.1,4.15,22.71,1.16,2.43-.21,5.17.93,7.6,1.54,2,1.14,4.36,1.19,6.64.67,1.83.26,3.73.33,5.6-2.35,2.4-2.78-1.12-4.26-1.39l-5.12-5.43c-.91-2.48-3.1-3.84-4.84-5.6l-20.86-22.42c-1.19-6.5-1-13.12-1.62-19.67-.33-3.59-1.62-5.74-4.82-7.27-9.55-4.58-10.47-7.7-5.52-17.46a4.92,4.92,0,0,1,2.12-1.2c1.82-.47,3.65-.88,5.49,0C159.66,199,159.91,198.6,160.07,198.09Z" transform="translate(-12 -6)"/><path class="cls-1" d="M152.15,199.92a18,18,0,0,0-.68,1.86c-2.62,10.54-2.69,10.71,7.13,15,3.41,1.48,4.7,3.35,4.51,7-.35,6.86,1.89,13.7.28,20.59a242.76,242.76,0,0,1-40.58-57.22c.92-2.11,3.56-2.93,4-5.37a1.51,1.51,0,0,1,1.08-1.81l4.08,3c3.08.93,5.17,3.31,7.59,5.21,2.7,1.87,5,4.22,7.78,6,1.56,1.54,3.76,2.38,4.92,4.38A1.32,1.32,0,0,1,152.15,199.92Z" transform="translate(-12 -6)"/><path class="cls-1" d="M172.32,203.84c-2.93-2.44-4.93-6.36-9.59-6a2,2,0,0,0,0-.87,32.09,32.09,0,0,0,2.07-10c.11-.91.21-1.82.31-2.73.89-1.66,0-3.56.71-5.24v-9c-.7-1.69.19-3.58-.7-5.24,3.33-1.79,5.5-1,6.72,2.71,3.88,11.74,8.34,23.28,11.35,35.3.57,1.14.14,2.28-.17,3.34-1.32,4.44-3.33,5-7.05,2.17C174.43,207.07,172.74,206,172.32,203.84Z" transform="translate(-12 -6)"/><path class="cls-61" d="M108.15,227.91c-2.76.42-2.29,2.64-2,4.27,1.92,11.88.56,23.82.91,35.72.29,10.08-.54,20.19.92,30.24a11.53,11.53,0,0,1-4.87-3.29,9,9,0,0,1-1.54-5.18c.12-17.3-1.51-34.54-.76-51.88a143.23,143.23,0,0,0-.9-26.4c-.33-2.32-.61-4.67.28-6.91.56-1.43,1.44-2.41,2.75-.54,1.06,6.95,2.18,13.89,3.11,20.85C106.23,226.35,107.29,227,108.15,227.91Z" transform="translate(-12 -6)"/><path class="cls-62" d="M102.91,203.94c-1.8-.75-2,.33-1.84,1.67,1.51,9.85.49,19.82,1.53,29.71.38,3.54-.56,7.2-.5,10.79.25,16.25.64,32.5,1,48.74a10.75,10.75,0,0,1-4.09-3.8,14.12,14.12,0,0,1-1.54-7.2c0-3.64-.09-7.29,0-10.93.69-22-1.24-44-1-66.05a29,29,0,0,1,.61-6.9,10.38,10.38,0,0,1,5-3.06Z" transform="translate(-12 -6)"/><path class="cls-63" d="M131,302.75l-4,.08c-2.89-4.24-1.29-9.06-1.54-13.56-1-18.84-.88-37.7-.95-56.56,0-1.31-.48-2.64.5-3.81,3.12-.54,4.09.92,4,3.89-.11,8.61,0,17.23-.1,25.85,0,2.48.31,4.56,2.33,6.14.17,9.79-.12,19.6.81,29.37C132.4,297.1,133.24,300.13,131,302.75Z" transform="translate(-12 -6)"/><path class="cls-64" d="M191.87,236.68c-3.43-.63-4.87-3.8-7.19-5.8-3.9-3.37-7.32-7.28-11.15-10.74-3.08-2.79-3.19-5.81-1.58-9.26a2.2,2.2,0,0,1,2.32.24,21.69,21.69,0,0,0,12.44,3.64Z" transform="translate(-12 -6)"/><path class="cls-65" d="M125,228.9a25.25,25.25,0,0,1,1,8.34c-.69,21.87,1.28,43.71,1,65.59h-2c-2-1.48-2.09-3.66-1.94-5.85,1.28-19-.21-37.85-1.25-56.75a31.25,31.25,0,0,1,1.6-10.75l.67-.66A2.24,2.24,0,0,1,125,228.9Z" transform="translate(-12 -6)"/><path class="cls-66" d="M131,302.75c-1.35-11.4-.13-22.94-1.86-34.32-.27-1.76-.09-3.35,2.18-3.65,1,.09,2.1.14,2.79,1.1a2.81,2.81,0,0,0-1,3.11c2,10,.45,20.07.93,30.1C134.14,301.21,134.09,303.25,131,302.75Z" transform="translate(-12 -6)"/><path class="cls-67" d="M157,301.82l-5,0c-.31-8.62.94-17.35-1.92-25.8a2.71,2.71,0,0,1,.95-3.13l5,2C158,283.86,160.09,292.75,157,301.82Z" transform="translate(-12 -6)"/><path class="cls-68" d="M121.05,265.93c-2.27-1.87.27-5.12-2-7-1.76-10.23-.73-20.56-1-30.84,2,0,4.16-.61,6,.73L124,229c-2.55,4-2,8.52-1.78,12.88.3,6.26,1,12.5.8,18.78C123,262.67,123.11,264.71,121.05,265.93Z" transform="translate(-12 -6)"/><path class="cls-69" d="M186.71,214.76c-6.11,3.21-10.19-1.24-14.76-3.88q.18-3.52.37-7c.75.61,1.48,1.25,2.25,1.84,6,4.64,6,4.63,8.63-2.93C185.12,206.54,185.67,210.72,186.71,214.76Z" transform="translate(-12 -6)"/><path class="cls-70" d="M157,301.82c.75-9-1.6-17.87-1-26.86a21.63,21.63,0,0,1,7,3c-4,3.12-1.87,7.82-2.88,11.71-.73,2.79-.22,5.93-.13,8.92C160.12,300.74,159.55,302.14,157,301.82Z" transform="translate(-12 -6)"/><path class="cls-71" d="M184.25,266.81c2.64,1,4.7,2.46,4.83,5.6A21.25,21.25,0,0,1,184.25,266.81Z" transform="translate(-12 -6)"/><path class="cls-72" d="M198,279.87q.06-3.12.13-6.24c1.3,1.92.82,4.12,1,6.21.57,1.35.47,2.33-1.29,2.41L198,282A1.59,1.59,0,0,1,198,279.87Z" transform="translate(-12 -6)"/><path class="cls-73" d="M198,279.87,198,282a6.87,6.87,0,0,1-3.74-4.16C196.05,277.44,196.64,279.39,198,279.87Z" transform="translate(-12 -6)"/><path class="cls-74" d="M197.83,282.25l1.29-2.41c.91,1.36,1.79,3,.32,4.18C198.7,284.62,198,283.27,197.83,282.25Z" transform="translate(-12 -6)"/><path class="cls-75" d="M197,267c-1.77-2.35-.71-5.05-.93-7.6C197.42,261.79,197.36,264.37,197,267Z" transform="translate(-12 -6)"/><path class="cls-30" d="M165.13,164.74c1.05,1.64.85,3.44.7,5.24C164.45,168.38,165.09,166.52,165.13,164.74Z" transform="translate(-12 -6)"/><path class="cls-30" d="M165.84,179c.12,1.79.41,3.61-.71,5.24C165.1,182.45,164.45,180.59,165.84,179Z" transform="translate(-12 -6)"/><path class="cls-16" d="M147,195.13l-7.89-6.21a8.32,8.32,0,0,1-1.57-4.65c.08-12.9-.61-25.82.36-38.72.1-1.35.07-2.65,1.15-3.65l9.16,4.95c1,10.42.21,20.87.45,31.3.08,3.81.08,7.63,0,11.44C148.54,191.56,148.65,193.62,147,195.13Z" transform="translate(-12 -6)"/><path class="cls-76" d="M139,141.9l.06,47c-2.5-1.79-5.37-3.14-7.06-5.88,0-9.93,0-19.85,0-29.77,0-1.71.63-3.83-2.06-4.31,1.87-1.64,4.92-.92,6.59-3.37L132,143c-.05-2-1.05-4.36,2.05-5.06C136,139,138,139.78,139,141.9Z" transform="translate(-12 -6)"/><path class="cls-77" d="M147,195.13c0-14.22,0-28.45.1-42.68,0-1.9-.71-4,1.11-5.6l3.87,1.24c1.53,1.61,1.38,3.65,1.38,5.62q0,19.86,0,39.71c0,2,.26,4-1.4,5.59Z" transform="translate(-12 -6)"/><path class="cls-47" d="M170.75,88.36c2.63,5.78,5.09,11.75,5.6,18.38.2,2.58-1,3.52-3.56,3.43-6.62-.26-9.8-4.47-7.82-10.74,1-3.13,2.36-6.15,3.62-9.19A2.36,2.36,0,0,1,170.75,88.36Z" transform="translate(-12 -6)"/><path class="cls-78" d="M133.7,103.22c1.16,2.16,4.4,3.8,2.73,6.71-2,3.43-5.67,4.06-9.39,4.1a1.37,1.37,0,0,1-1.19.43,15,15,0,0,1-5-1.87,9.1,9.1,0,0,1-2.42-2.45,5.21,5.21,0,0,1-.86-4.11,8,8,0,0,1,2.38-2.87,7.21,7.21,0,0,1,3.65-1.36c3-.07,5.95-.39,8.89.35A2.5,2.5,0,0,1,133.7,103.22Z" transform="translate(-12 -6)"/><path class="cls-79" d="M146.94,123.81c-2.66-2.79-3.18-6.38-3.7-10a1.59,1.59,0,0,1,1.46.21c2,2.92,4.84,4.15,8.25,4.74a102.92,102.92,0,0,0,17.06,2c1.43,2.2-.59,3.37-1.45,4.88C162.64,132.67,153.7,131.88,146.94,123.81Z" transform="translate(-12 -6)"/><path class="cls-25" d="M133,102.86l-9.92-.25c-1.08-1.68.24-2.79,1-4,5.26-7.81,10.59-15.58,15.61-23.56A6.13,6.13,0,0,1,143.37,72c4.94-.16,10-1.73,14.66,1.23-1.11,1.29-2.67.72-4,1a8.41,8.41,0,0,1-3.48,1.1,6.14,6.14,0,0,0-6.24,3c-4.2,6.51-8.59,12.9-12.87,19.36-.88,1.33-2.38,2.81.56,3.59C132.63,101.59,133.15,102,133,102.86Z" transform="translate(-12 -6)"/><path class="cls-78" d="M146.94,123.81c1.58.24,2.54,1.45,3.73,2.32,6,4.41,11.7,4,17.42-1.06.93-.14,1.42.14,1.11,1.18-3.77,6.9-7,8.79-13.63,7.91C150.28,133.45,147.17,129.72,146.94,123.81Z" transform="translate(-12 -6)"/><path class="cls-80" d="M152,199l0-50.92c2.63.45,5.46-.79,7.94.93l-1.92.13a10.69,10.69,0,0,0-1.86,1.76c-1.09,1.84-.75,3.89-.75,5.85,0,12.14,0,24.27,0,36.41,0,2.28.44,4.71-1.38,6.64l-1.89.11A3.45,3.45,0,0,1,152,199Z" transform="translate(-12 -6)"/><path class="cls-81" d="M158,73.19l-16,0c-1,.42-2.07.83-2.87-.42.33-1.59,2.12-1.57,2.92-2.64a8.55,8.55,0,0,1,7.88-2.34l3.21,0C155.75,68.76,158.45,69.54,158,73.19Z" transform="translate(-12 -6)"/><path class="cls-13" d="M148,84.08c.58,2.5,1.73,5-.58,7.33a3.73,3.73,0,0,1-5.3.41,4.06,4.06,0,0,1-2.1-3.12c-.26-3.5.66-6.28,4.49-7.26C146.48,81.29,147.2,82.76,148,84.08Z" transform="translate(-12 -6)"/><path class="cls-82" d="M140.92,89.07l1.23,2.75c-2.89,3.74-4.54,8.41-8.45,11.4a.93.93,0,0,1-.71-.35l-.93-.91C131.92,97.46,136.67,90.56,140.92,89.07Z" transform="translate(-12 -6)"/><path class="cls-83" d="M161.37,113.92a21.82,21.82,0,0,1,9,1.3c2.65.9,3.23,2.31,2.42,4.71a2.62,2.62,0,0,1-2.19-.63c-4.08-1.41-8.47-1-12.6-2.07-1.95-.52-4.36-.3-5.12-2.94C155.68,112.82,158.53,113.6,161.37,113.92Z" transform="translate(-12 -6)"/><path class="cls-84" d="M121.2,111.94l5,2a26.88,26.88,0,0,0-4.66,5.43c-.87,1.18-1.38,3-3.51,2.66a6.18,6.18,0,0,1-3-3C116.51,116.14,116.92,112.36,121.2,111.94Z" transform="translate(-12 -6)"/><path class="cls-85" d="M179.79,91.08c.05-2.26.52-4.36,3.06-4.36,2.15,0,3,1.85,3.05,3.83s-.5,4.2-3,4.43C180.2,95.24,179.94,93,179.79,91.08Z" transform="translate(-12 -6)"/><path class="cls-32" d="M148,84.08l-3-2c-.41-3.94,2-6.13,5-7.94h4C152.09,77.53,149.14,80.25,148,84.08Z" transform="translate(-12 -6)"/><path class="cls-86" d="M118.05,122c3.17-2.25,3.09-7.77,8.17-8.08a.86.86,0,0,1,.82.09c-1.77,2.61-3.45,5.27-5.35,7.78C120.73,123.07,119.42,124.82,118.05,122Z" transform="translate(-12 -6)"/><path class="cls-87" d="M121.2,111.94c-3,1.53-3.23,5.47-6.14,7.08l-1.8-2c-.09-.33-.17-.65-.25-1,1.54-2.55,2.36-5.83,6.16-6.09Z" transform="translate(-12 -6)"/><path class="cls-88" d="M134.05,138c-1.9,1.19-.1,3.89-2.05,5.06a2.07,2.07,0,0,1-2-.95,28.6,28.6,0,0,1,0-2.93c.14-1.23-.68-3,.78-3.53C132.55,135,133.24,136.81,134.05,138Z" transform="translate(-12 -6)"/><path class="cls-89" d="M161.37,113.92c-2.75.53-5.68-.68-8.32.84-2.26.88-4.29,1.19-5-1.91a2.82,2.82,0,0,1,2.41.05C154.06,113.38,157.79,112.82,161.37,113.92Z" transform="translate(-12 -6)"/><path class="cls-90" d="M171.94,118.88l.88,1.05c-.81,2.34-1.72,4.61-3.62,6.32l-1.11-1.18,2-4C169.58,119.4,170.44,118.87,171.94,118.88Z" transform="translate(-12 -6)"/><path class="cls-91" d="M150.42,112.9l-2.55.2c-1.14,1.29-2.6,1-4,.8l-.6-.05c-.3-2-.93-4.33,2.61-2.79C147.35,111.71,148.89,112.29,150.42,112.9Z" transform="translate(-12 -6)"/><path class="cls-61" d="M376.05,229.09c-2.08-9-6.56-16.87-11.36-24.6-.69-1.11-1.79-2-1.76-3.48l2.94.89c2.37-.32,3,1.72,3.9,3.11a83.13,83.13,0,0,1,7.15,14c1.05,2.44.73,4.75.11,7.15C377,227.19,377.07,228.32,376.05,229.09Z" transform="translate(-12 -6)"/><path class="cls-92" d="M381,214a10.06,10.06,0,0,1-1.95,6c-2.18-.69-2.68-2.69-3.47-4.46a85.43,85.43,0,0,0-4.87-9c-.75-1.25-2.05-2.48-1.08-4,1.08-1.67,2.77-1.23,4.34-.55l.06,0C378.21,204.84,379.72,209.32,381,214Z" transform="translate(-12 -6)"/><path class="cls-49" d="M373.92,202c-2.46.19-5.58-.67-2.39,3.79s5,9.46,7.47,14.24a12,12,0,0,1-2,6.11c-1-9.34-5.78-16.9-11.16-24.21C368.56,200.63,371.25,200.35,373.92,202Z" transform="translate(-12 -6)"/><path class="cls-93" d="M381,214q-3.48-6-7-12C381.5,202.18,383.77,206.09,381,214Z" transform="translate(-12 -6)"/><path class="cls-3" d="M206.83,212c-1-3-2.37-5.89-2.9-8.94a23.12,23.12,0,0,1,.67-9.24c.76,1.66,1.58,3.29,2.29,5q14,33,28,66c.32.74.77,1.43,1.16,2.15,3.64,8.86,7.16,17.78,11,26.55,1.55,3.54,1,4.47-2.94,4.45-7.46,0-14.94.26-22.39.8-3.85.28-3.95-.95-3.16-4.2,2.29-9.33,4.21-18.75,6.22-28.16a14.24,14.24,0,0,0-.23-7.38A488.27,488.27,0,0,0,206.83,212Z" transform="translate(-12 -6)"/><path class="cls-94" d="M97.05,200c1.08.81,1,2,1,3.16,0,29.31,1.75,58.6.93,87.92A18.31,18.31,0,0,1,94,286c-.35-13.26-2.53-26.5-.84-39.78.66-5.22-.37-10.28-.57-15.41-.33-8.64.22-17.29-.71-25.91A16.76,16.76,0,0,1,97.05,200Z" transform="translate(-12 -6)"/><path class="cls-95" d="M91.9,204.88c1.85,1.94,2.09,4.37,2.17,6.88.29,8.77-.72,17.57.94,26.31.94,5-1.14,9.85-1,14.83q.51,13.64,1,27.29c.07,2,.09,4-1,5.79-2-1.13-3-3.07-4-5.07a54.94,54.94,0,0,1-.61-10.41c.48-18.74-.58-37.45-1-56.18,0-2.64-.18-5.34,1.48-7.67Z" transform="translate(-12 -6)"/><path class="cls-96" d="M90,206.65c.15,22.66,1.75,45.3,1.11,68-.06,2.14.22,4.33-1,6.28A16.68,16.68,0,0,1,86,272c-.91-18.19-.33-36.42-1.5-54.6-.17-2.63-.23-5.34,1.46-7.66C87.14,208.47,88.12,207,90,206.65Z" transform="translate(-12 -6)"/><path class="cls-97" d="M86,209.69c.13,19,1.76,38.06,1.07,57.13-.06,1.74.66,3.7-1,5.13a36.73,36.73,0,0,1-4-10c-.39-16.38-1.58-32.75-1.23-49.15A13.07,13.07,0,0,1,86,209.69Z" transform="translate(-12 -6)"/><path class="cls-98" d="M80.83,212.8a2.84,2.84,0,0,1,1.22,2.57c-.08,13.76,1.73,27.47,1,41.24a43.09,43.09,0,0,1-1,5.34,22.59,22.59,0,0,1-3-7c-3-12.55-.93-25.3-1.37-38A5.4,5.4,0,0,1,79,213.83Z" transform="translate(-12 -6)"/><path class="cls-99" d="M61.2,235c-.83-2.06,1.67-4.49-.71-6.37a17,17,0,0,1,5.32-5.8c3,.22,2.33,2.66,2.68,4.44,1.32,6.79,0,13.58,0,20.38,0,1.15-.35,2.31.52,3.31-1.77,3.51-1.59,7.71-3.91,11-3.18-.66-2.74-3.35-2.76-5.45C62.26,249.29,61.53,242.14,61.2,235Z" transform="translate(-12 -6)"/><path class="cls-100" d="M61.2,235c.86.16,1.7.52,1.76,1.45.35,6.21.91,12.44.78,18.64-.05,2.54.06,4.75,1.35,6.89q-1,4-2.05,8c-2.77,1.35-3.8.15-3.28-2.52a25.56,25.56,0,0,0-.19-8.33c2.34-5-1.53-7.36-4.42-10.11-.23-4.6,1.4-8.87,2.35-13.27C58.63,234.89,60.22,236.47,61.2,235Z" transform="translate(-12 -6)"/><path class="cls-101" d="M69,250.92c-4.08-3.86-1.51-8.52-1.42-12.82.1-5.21.09-10.35-1.77-15.31a8,8,0,0,1,4-3,1.86,1.86,0,0,1,2.29,2c.06,6.43,2.25,12.74,1,19.22C70.37,243.76,70.33,247.6,69,250.92Z" transform="translate(-12 -6)"/><path class="cls-102" d="M73.06,241a61.09,61.09,0,0,1-2-15.65c0-1.89.77-4.05-1.22-5.55A19.51,19.51,0,0,1,76,215.67a4.43,4.43,0,0,1,1.5,3.54c.12,7.1.14,14.2,0,21.31,0,1.86-.48,3.63-2.46,4.5A6,6,0,0,1,73.06,241Z" transform="translate(-12 -6)"/><path class="cls-103" d="M75,245c2-3.9.88-8.08,1-12.12.17-5.74,0-11.49,0-17.23a4.56,4.56,0,0,1,3-1.84q0,20.55,0,41.1C77.49,251.72,75.39,248.72,75,245Z" transform="translate(-12 -6)"/><path class="cls-104" d="M60.08,258c.17,3.21,1.8,6.26.34,9.66-.91,2.13,1.09,2.25,2.62,2.3l-2,7c-2.42-.36-1.93-2.25-1.94-3.8,0-4.73,0-9.46,0-14.2C58.86,258,59.24,257.75,60.08,258Z" transform="translate(-12 -6)"/><path class="cls-105" d="M121.05,265.93c1.36-5.21,1-10.37.4-15.69-.69-6.23-.29-12.58-.38-18.87,0-2.09,1.26-2.46,3-2.36.37,5.38-.41,10.71-.27,16.14.4,15,2,30,1.35,45-.18,4.2-2.23,8.42-.07,12.63h-3c0-9.55-.1-19.1.09-28.64C122.17,271.33,121.16,268.71,121.05,265.93Z" transform="translate(-12 -6)"/><path class="cls-106" d="M60.08,258l-1,1a6.91,6.91,0,0,0-4,1L54,258.77,55.15,249a9.69,9.69,0,0,1,5.93,4C62.33,255,62.47,256.73,60.08,258Z" transform="translate(-12 -6)"/><path class="cls-107" d="M154,199.81c0-15.31,0-30.63.05-45.94,0-1.69-1.24-4.26,2-4.74,1.37,1.74.91,3.81.92,5.75,0,12.43,0,24.85,0,37.27,0,1.94-.49,4,1,5.71l1,.88Z" transform="translate(-12 -6)"/><path class="cls-108" d="M158.08,197.86c-2.92-.31-2-2.61-2-4.2,0-14.85,0-29.69,0-44.53h2Q158.07,173.5,158.08,197.86Z" transform="translate(-12 -6)"/><path class="cls-13" d="M83.14,169c2.26-.08,4.66-.38,5,2.89.4,1,.91,2-.87,2C86.11,172.1,85,170.22,83.14,169Z" transform="translate(-12 -6)"/><path class="cls-109" d="M127.94,180l-1.08,1.81-1.92,0c-1.08-1.48-2.8-.4-4.09-1,2.07-3.38,4.63-2.11,7.2-.76Z" transform="translate(-12 -6)"/><path class="cls-26" d="M87.27,173.91l.87-2c.66,1.71,2.65,3,1.76,5.2A5.55,5.55,0,0,1,87.27,173.91Z" transform="translate(-12 -6)"/><path class="cls-110" d="M128.05,180.05c-2.42.07-4.92-.66-7.2.76-3.11-.27-2.92-3.18-3.9-5-1.75-3.32-3.18-6.8-4.83-10.4,2.17-.87,2.56,1.37,3.83,1.67,2.49,1.06,4,3.1,5.11,5.42Z" transform="translate(-12 -6)"/><path class="cls-18" d="M121.06,172.46c-1.83-1.68-3.92-3.13-5.11-5.42l1.23-1.26C119,167.72,121,169.54,121.06,172.46Z" transform="translate(-12 -6)"/><path class="cls-111" d="M139.14,72.82l2.87.42c-5.53,10.3-12.86,19.43-18.94,29.38q-1.53.69-3.06,1.41c-2.33-1.49-.24-2.73.42-3.71C126.3,91.57,132,82.68,138,74.05Z" transform="translate(-12 -6)"/><path class="cls-112" d="M138,74.05c-4.55,9.18-11.21,17-16.42,25.77-.77,1.3-2.59,2.23-1.61,4.21l-1.76,2c-1.17,2.48-2,5.14-4,7.14-.79.8-1.55,1.87-2.87.78l-1.42-1.9c2.53.06,3.16-2.15,4.21-3.7Q124.51,93,134.72,77.59C135.64,76.19,136.47,74.79,138,74.05Z" transform="translate(-12 -6)"/><path class="cls-113" d="M149.94,67.84l-7.88,2.34,1-3.08C145.35,67.3,147.8,66.2,149.94,67.84Z" transform="translate(-12 -6)"/><path class="cls-114" d="M111.35,114c3.52-1.58,3.87-5.91,6.9-7.92.31,1.3.62,2.6.92,3.9-2.61,1.46-3.21,5-6.16,6.09Z" transform="translate(-12 -6)"/><path class="cls-115" d="M143.83,113.9c1.06-1.71,2.68-.62,4-.8,1.51,1.22,3.42,1.19,5.18,1.66a66.12,66.12,0,0,0,14.94,2.3c1.54.08,3.42-.48,3.95,1.82l-1.89,2.2c-8.19,2.29-15.81-.91-23.54-2.67C144.68,118,144.8,115.39,143.83,113.9Z" transform="translate(-12 -6)"/><path class="cls-116" d="M150,74.17q-2.49,4-5,7.94c-3.44,1.1-4.18,3.79-4.1,7A40.44,40.44,0,0,0,132.06,102h-4.94L145,75.29C146.29,73.35,148.26,74.23,150,74.17Z" transform="translate(-12 -6)"/></svg>