<svg id="Calque_1" data-name="Calque 1" xmlns="http://www.w3.org/2000/svg" viewBox="0 0 431.97 447.91"><defs><style>.cls-1{fill:#ff6a14;}</style></defs><path class="cls-1" d="M407,111.9l-98.5-9,14-33.4c10.4-23.5-10.8-40.4-28.7-37L22.5,76.9C7.4,79.6-3.5,95.2,1.1,113.5L106.2,461.8c6.5,21.3,36.7,24.2,47.7,7L189.2,388,424.4,156.7C440.8,139.9,428.7,113.8,407,111.9ZM297.6,53.6c5.1-.7,7.5,2.5,5.2,7.4L286,100.9,108.6,84.6ZM22.7,107.9c-3.1-5.1,1-10,6.1-9.1l248.7,22.7L180.6,352.2ZM136,456.4c-2.6,4-7.9,3.1-9.4-1.2L43.5,179.7,171.2,377.3C164.2,392.3,136,456.4,136,456.4ZM408.8,141.9,210.1,337.3l89.7-213.7,106.4,9.7C410.2,134.4,411.9,138.6,408.8,141.9Z" transform="translate(-0.04 -32.06)"/></svg>