<svg id="Calque_1" data-name="Calque 1" xmlns="http://www.w3.org/2000/svg" viewBox="0 0 512 512"><defs><style>.cls-1{fill:#f66b13;}</style></defs><path class="cls-1" d="M505.12,19.09c-1.19-5.53-6.66-11-12.21-12.18C460.72,0,435.51,0,410.41,0,307.18,0,245.27,55.2,199.05,128H94.84C78.49,128,59.28,139.88,52,154.48L2.52,253.3A28.27,28.27,0,0,0,0,264a24,24,0,0,0,24,24H127.82l-22.48,22.47c-11.36,11.36-13,32.26,0,45.25l50.91,50.91c11.15,11.18,32.15,13.15,45.27,0L224,384.16V488a24,24,0,0,0,24,24,28.51,28.51,0,0,0,10.71-2.52l98.73-49.39c14.63-7.29,26.51-26.5,26.51-42.86V312.8c72.59-46.32,128-108.41,128-211.1C512.08,76.5,512.08,51.3,505.12,19.09ZM384,168a40,40,0,1,1,40-40A40,40,0,0,1,384,168Z" transform="translate(0 0)"/></svg>