<svg id="Calque_1" data-name="Calque 1" xmlns="http://www.w3.org/2000/svg" viewBox="0 0 512 512"><defs><style>.cls-1{fill:#ff6a14;}</style></defs><path class="cls-1" d="M160,288H104a8,8,0,0,1-8-8V264a8,8,0,0,1,8-8h56V192H104a8,8,0,0,1-8-8V168a8,8,0,0,1,8-8h56V96H104a8,8,0,0,1-8-8V72a8,8,0,0,1,8-8h56V32A32,32,0,0,0,128,0H32A32,32,0,0,0,0,32V480c0,2.77.91,5.24,1.57,7.8L160,329.38Zm320,64H448v56a8,8,0,0,1-8,8H424a8,8,0,0,1-8-8V352H352v56a8,8,0,0,1-8,8H328a8,8,0,0,1-8-8V352H256v56a8,8,0,0,1-8,8H232a8,8,0,0,1-8-8V352H182.63L24.2,510.43c2.56.66,5,1.57,7.8,1.57H480a32,32,0,0,0,32-32V384A32,32,0,0,0,480,352Z" transform="translate(0 0)"/></svg>