<svg id="Calque_1" data-name="Calque 1" xmlns="http://www.w3.org/2000/svg" viewBox="0 0 512 512"><defs><style>.cls-1{fill:#f66b13;}</style></defs><path class="cls-1" d="M507.73,109.1a12,12,0,0,0-20.12-5.51L413.25,178l-67.88-11.31L334.06,98.76,408.42,24.4a12,12,0,0,0-5.66-20.16A143.92,143.92,0,0,0,266.18,42.17c-39.64,39.64-50.55,97.1-34.05,147.2L18.74,402.76a64,64,0,0,0,90.5,90.5L322.45,280.05c50.12,16.71,107.47,5.68,147.37-34.22A143.94,143.94,0,0,0,507.73,109.1ZM64,472a24,24,0,1,1,24-24A24,24,0,0,1,64,472Z" transform="translate(0 0)"/></svg>